Coordinates
version=1
nRows=21
nColumns=28
inDegrees=yes

Units are S.I. units (second, meters, Newtons, ...)
If the header above contains a line with 'inDegrees', this indicates whether rotational values are in degrees (yes) or radians (no).

endheader
time	pelvis_tilt	pelvis_list	pelvis_rotation	pelvis_tx	pelvis_ty	pelvis_tz	hip_flexion_r	hip_adduction_r	hip_rotation_r	knee_angle_r	knee_rotation_r	knee_adduction_r	ankle_angle_r	subtalar_angle_r	mtp_angle_r	hip_flexion_l	hip_adduction_l	hip_rotation_l	knee_angle_l	knee_rotation_l	knee_adduction_l	ankle_angle_l	subtalar_angle_l	mtp_angle_l	lumbar_extension	lumbar_bending	lumbar_rotation
      0.28000000	     10.13256846	      6.67358780	    -93.69071690	     -0.17782589	      0.94490007	     -0.40927270	     25.63315164	    -17.65560557	      9.78473448	    -69.46394290	      2.76002029	     13.18098522	    -16.66581411	    -30.85839392	     -9.66559788	     30.81241142	      9.66359731	     -6.47998564	    -25.04841650	      7.18449651	     -1.97665390	     10.89597224	     -9.63154280	     -4.19754344	      0.00000000	      0.00000000	      0.00000000
      0.29000000	     10.59485307	      6.35934481	    -93.31178876	     -0.17760124	      0.94732878	     -0.39779313	     26.85236436	    -18.17548088	      9.84389244	    -70.82975784	      2.13110740	     13.12869055	    -15.46887096	    -30.85056858	     -9.79327306	     29.47807328	     10.34169221	     -6.35775975	    -24.60733520	      6.46354206	     -2.07205135	     11.27771171	    -10.18150457	     -4.16663033	      0.00000000	      0.00000000	      0.00000000
      0.30000000	     10.89428813	      5.93580350	    -92.81308903	     -0.17713269	      0.94975865	     -0.38645352	     27.83015950	    -18.68845735	      9.60148389	    -71.87555281	      1.63035776	     13.06250607	    -14.11690497	    -30.10356959	     -9.55100464	     28.12739687	     10.90496825	     -6.17217313	    -24.40268418	      5.97847430	     -2.08748289	     11.73445665	    -10.20106892	     -4.32955867	      0.00000000	      0.00000000	      0.00000000
      0.31000000	     11.13867503	      5.58703165	    -92.31533742	     -0.17673680	      0.95207675	     -0.37485826	     28.75622976	    -19.12328888	      9.25253683	    -72.56273718	      1.32159284	     12.89851320	    -12.63579152	    -29.41479116	     -9.08952706	     26.78270239	     11.37411374	     -5.92221875	    -24.12269638	      5.80135190	     -2.15307559	     12.25996497	     -9.89865244	     -4.48730554	      0.00000000	      0.00000000	      0.00000000
      0.32000000	     11.38051186	      5.40673210	    -91.64019646	     -0.17607980	      0.95376901	     -0.36369810	     29.81304928	    -19.67367084	      9.02039517	    -73.02500362	      1.20516771	     13.02547470	    -11.36433361	    -28.52241161	     -8.54536009	     25.66245037	     11.94988423	     -4.78446594	    -23.91901867	      6.39072986	     -2.41228305	     12.73630907	     -9.52943951	     -4.62987843	      0.00000000	      0.00000000	      0.00000000
      0.33000000	     11.67857381	      5.22692211	    -90.94106802	     -0.17518266	      0.95520392	     -0.35210571	     30.81293971	    -20.38293974	      8.59308210	    -73.25720698	      1.18972394	     12.98749459	    -10.04949975	    -27.07261692	     -7.59557086	     24.49482472	     12.68313741	     -3.77774155	    -23.67937455	      7.17588411	     -2.44125825	     13.57322642	     -8.57246056	     -4.72120687	      0.00000000	      0.00000000	      0.00000000
      0.34000000	     11.94014151	      4.92045137	    -90.41995628	     -0.17460688	      0.95683048	     -0.34054368	     31.62900229	    -20.88420071	      8.45297925	    -73.08333209	      1.66268408	     12.99353955	     -8.76536811	    -26.00512538	     -6.58429210	     23.12108761	     13.33566219	     -3.00160462	    -23.24078366	      7.72942593	     -2.32946781	     14.14859265	     -7.95225915	     -4.68828115	      0.00000000	      0.00000000	      0.00000000
      0.35000000	     11.97883163	      4.87338992	    -89.87157036	     -0.17444737	      0.95822996	     -0.32957495	     32.57060843	    -21.01326809	      8.30980340	    -72.55843372	      2.08692872	     13.02979989	     -7.56055467	    -25.31751511	     -5.97574186	     22.11757815	     13.67695439	     -1.85945408	    -23.00351502	      8.42578595	     -2.39527633	     14.58479922	     -7.45905498	     -4.68960884	      0.00000000	      0.00000000	      0.00000000
      0.36000000	     12.06683532	      4.80851722	    -89.43153695	     -0.17390292	      0.95944071	     -0.31847850	     33.39533808	    -21.22000120	      8.58560857	    -71.66526069	      2.78365210	     13.48867958	     -6.28388018	    -25.52153157	     -5.86695947	     21.10904217	     14.10512063	     -1.10857891	    -22.75545520	      8.57712942	     -2.27974122	     15.07822254	     -7.47752932	     -4.69282750	      0.00000000	      0.00000000	      0.00000000
      0.37000000	     12.08960358	      4.84690140	    -89.02389981	     -0.17392775	      0.96047948	     -0.30764621	     34.26514117	    -21.30805912	      8.55781006	    -70.52902603	      3.25508429	     13.81013954	     -5.31170792	    -25.69658502	     -5.87626504	     20.22792129	     14.34763163	     -0.48296803	    -22.49402610	      8.64248188	     -2.16623628	     15.56345307	     -7.44891695	     -4.70879676	      0.00000000	      0.00000000	      0.00000000
      0.38000000	     12.01504160	      4.78127234	    -88.26873381	     -0.17266791	      0.96121210	     -0.29692350	     34.82920330	    -21.71486064	      8.15923838	    -69.24924415	      3.61064871	     13.97886072	     -3.93108310	    -24.36657657	     -5.72911609	     19.29957382	     14.66395426	      0.51113766	    -22.47090944	      8.68500671	     -2.08061546	     16.07872175	     -7.36699963	     -4.81317930	      0.00000000	      0.00000000	      0.00000000
      0.39000000	     11.90001889	      4.84034428	    -87.99473244	     -0.17285974	      0.96214811	     -0.28632327	     35.48156364	    -21.42253399	      8.44821010	    -67.50654895	      3.67412652	     14.29895582	     -3.26623180	    -24.47853136	     -5.75259065	     18.44216828	     14.62346660	      1.09153630	    -22.22020089	      8.71580793	     -2.09873737	     16.59982563	     -7.40048432	     -4.86284072	      0.00000000	      0.00000000	      0.00000000
      0.40000000	     11.95303052	      4.65386862	    -87.65935966	     -0.17290907	      0.96336030	     -0.27586127	     35.89453903	    -21.44827576	      8.49967412	    -65.69908972	      3.64537023	     14.46278912	     -2.55220121	    -24.10233908	     -5.88477710	     17.30562015	     14.77025080	      1.41668101	    -21.92093551	      8.53216792	     -1.99514468	     16.98863847	     -7.08029862	     -4.97914555	      0.00000000	      0.00000000	      0.00000000
      0.41000000	     12.24613539	      4.50749040	    -87.39156820	     -0.17294598	      0.96414570	     -0.26546818	     36.35547589	    -21.78966262	      8.87300995	    -63.74187542	      3.46613123	     14.87055321	     -1.93540205	    -23.73682097	     -6.08077181	     16.14404527	     15.14764111	      1.85169327	    -21.45625128	      8.46330702	     -1.95904009	     17.26023351	     -7.14344573	     -5.05420847	      0.00000000	      0.00000000	      0.00000000
      0.42000000	     12.23522548	      4.57922577	    -87.36771118	     -0.17359915	      0.96493411	     -0.25481993	     36.75116774	    -21.41659587	      9.28392600	    -61.29173702	      3.09236372	     15.12655254	     -1.34639118	    -24.01525709	     -6.28485713	     15.19111010	     15.08837661	      2.38901880	    -20.91518668	      8.88881375	     -2.05018735	     17.70775233	     -7.08587086	     -5.16024353	      0.00000000	      0.00000000	      0.00000000
      0.43000000	     12.61694680	      4.24176739	    -87.16683414	     -0.17356204	      0.96540975	     -0.24480691	     36.98144890	    -21.90644943	      9.62972844	    -59.21742301	      1.80407615	     15.51232663	     -0.85941206	    -23.01265909	     -6.73567761	     13.91005339	     15.58385228	      2.69011755	    -20.55530094	      9.07096633	     -1.85535049	     18.18735165	     -6.33818973	     -5.34667156	      0.00000000	      0.00000000	      0.00000000
      0.44000000	     12.72001312	      4.22029108	    -86.92559168	     -0.17368692	      0.96579936	     -0.23479700	     37.30041315	    -21.85672703	      9.63791826	    -57.03709104	     -0.13164452	     15.20727895	      0.05259011	    -20.54230883	     -6.98843825	     12.91966209	     15.77670813	      3.69049659	    -20.14781633	      9.71426727	     -1.88656661	     18.57407083	     -6.07405168	     -5.46422472	      0.00000000	      0.00000000	      0.00000000
      0.45000000	     12.75686774	      4.34225857	    -86.88544982	     -0.17409472	      0.96592262	     -0.22462969	     37.57865166	    -21.65266285	      9.84063444	    -54.47582856	     -2.08614235	     15.17381679	      0.70350274	    -18.81207144	     -7.00238485	     12.09541842	     15.79696169	      4.24082916	    -19.70689167	      9.89341707	     -1.95308098	     18.95345057	     -6.19266838	     -5.59898148	      0.00000000	      0.00000000	      0.00000000
      0.46000000	     12.65510934	      4.39131029	    -86.85585212	     -0.17432549	      0.96605766	     -0.21453718	     37.50785168	    -21.27680510	      9.88931580	    -51.48191909	     -4.26494267	     14.99670931	      1.66576118	    -17.05361948	     -6.64182324	     11.30433832	     15.67317617	      4.61370313	    -19.48634042	     10.14169009	     -1.95427648	     19.42426869	     -5.76758240	     -5.74457151	      0.00000000	      0.00000000	      0.00000000
      0.47000000	     12.61638046	      4.55731017	    -86.75894059	     -0.17464037	      0.96592464	     -0.20438823	     37.38732068	    -20.95241006	      9.95381540	    -48.38509684	     -6.56561921	     14.63147931	      2.64185743	    -14.51876655	     -5.94961436	     10.65235582	     15.58201005	      4.93617545	    -19.30320181	     10.39441684	     -1.99037776	     19.91061905	     -5.25733999	     -5.86073223	      0.00000000	      0.00000000	      0.00000000
      0.48000000	     12.46830030	      4.68947651	    -86.78077061	     -0.17519845	      0.96572182	     -0.19420477	     37.08305679	    -20.35390991	      9.95586307	    -44.80942325	     -8.49636058	     14.10610923	      2.97871231	    -13.29390999	     -4.95483170	     10.01479737	     15.32021944	      5.07162754	    -19.16459412	     10.68132592	     -2.06033507	     20.53958037	     -4.57758507	     -5.95157626	      0.00000000	      0.00000000	      0.00000000
